<?xml version="1.0" encoding="utf-8"?>
<!-- Generator: Adobe Illustrator 23.0.6, SVG Export Plug-In . SVG Version: 6.00 Build 0)  -->
<svg version="1.1" id="Calque_1" xmlns="http://www.w3.org/2000/svg" xmlns:xlink="http://www.w3.org/1999/xlink" x="0px" y="0px"
	 viewBox="0 0 841.9 595.3" style="enable-background:new 0 0 841.9 595.3;" xml:space="preserve">
<style type="text/css">
	.st0{fill:none;}
	.st1{display:none;fill:#FFFFFF;}
	.st2{stroke:#FFFFFF;stroke-miterlimit:10;}
</style>
<image style="display:none;overflow:visible;" width="275" height="34" xlink:href="logo2.png"  transform="matrix(1 0 0 1 283 280.2756)">
</image>
<rect x="430.5" y="292.4" class="st0" width="30.1" height="21.9"/>
<path d="M349.9,292.4h-5.1h-5.4h-10.8h-2.7h-3.3v4.1v13.7v4.1h3.3h2.4v-8h0.3h19.6h1.8c2.3,0,4.1-1.8,4.1-4.1v-5.7
	C354,294.2,352.2,292.4,349.9,292.4z M347.4,299.5c0,1.5-1.3,2.8-2.8,2.8h-5.8h-2.7h-6.7v-6.1h6.7h2.7h5.8c1.5,0,2.8,1.3,2.8,2.8
	V299.5z"/>
<path d="M310,300.8h-0.9h-6.4h-1.3H290v-4.4c0-0.1,0-0.1,0-0.2h24.1c-0.1-2.2-1.7-3.9-3.7-3.9H290c0,0,0,0,0,0h-2
	c-2.3,0-4.1,1.8-4.1,4.1v4.7c0,1.7,1,3.1,2.5,3.8v0.3h1.6h9.3h1.3h1.5h8.8v5h-10.3H283c0,2.2,1.7,4,3.7,4h14.7h8.6h0.4
	c2,0,3.6-1.8,3.7-4c0,0,0-0.1,0-0.1v-5.2C314.1,302.7,312.3,300.8,310,300.8z"/>
<polygon points="384.3,314 377.4,314.1 373.6,309.1 354.6,309.2 358.3,305.3 370.7,305.3 364,296.5 368.5,293.1 "/>
<path d="M436.7,305h14.2v-3.2h-14.2l0-4.9h24.7c-0.1-2.2-1.7-3.9-3.7-3.9h-21.1c0,0,0,0,0,0h-2c-2.3,0-4.1,1.8-4.1,4.1v2.3v2.3v9.6
	h0.1c0.2,2,1.8,3.6,3.6,3.6h14.5h8.6h0.4c1.9,0,3.5-1.7,3.6-3.8h-24.7V305z"/>
<path d="M422.7,297c-0.1-2.2-1.7-3.9-3.7-3.9h-21.1c0,0,0,0,0,0h-2c-2.3,0-4.1,1.8-4.1,4.1v2.3v2.3v9.6h0.1c0.2,2,1.8,3.6,3.6,3.6
	H410h8.6h0.4c1.9,0,3.5-1.7,3.6-3.8H398l0-14.1L422.7,297z"/>
<circle cx="489.3" cy="302" r="13.4"/>
<path class="st1" d="M479,312.5c-1.1,0-2.1-0.1-2.9-0.4c-1.6-0.6-2.6-1.7-3-3.3c-0.5-2.1,0-4.8,1.7-8.2l1.3-2.6l-0.3,2.9
	c-0.1,0.9-0.1,1.6,0.1,2.3c0.3,1.2,1.1,2.1,2.4,2.6c5.1,1.8,16.3-2.8,28-11.4c10.5-7.8,19.4-17.3,23.2-24.9l1.3-2.6l-0.3,2.9
	c-0.9,7.7-11.5,20.6-25.3,30.8C494.8,308.1,485.1,312.5,479,312.5z M474.8,303.1c-0.8,2.2-1.1,4-0.7,5.4c0.3,1.2,1.1,2.1,2.4,2.6
	c5.1,1.8,16.3-2.8,28-11.4c11.4-8.4,20.6-18.7,23.8-26.2c-4.5,7-12.4,15-21.4,21.7c-12.1,8.9-23.5,13.5-29,11.5
	c-1.6-0.6-2.6-1.7-3-3.3C474.8,303.4,474.8,303.3,474.8,303.1z"/>
<path d="M397.9,297"/>
<g>
	<path class="st2" d="M510.1,291.7c-2.1-4.8-13.7-7.7-26.2-3.1c0,0,0.7-1.1-1.8-0.5c3-0.8,22.7-0.9,24.3,2.8
		c1.7,3.8-4.5,9.7-13.7,13.2c-9.2,3.5-18,3.3-19.7-0.4c-1.1-2.5,2.2-9.8,6.6-12.9c-5.7,3.8-9.6,12.2-8.1,15.6
		c2.1,4.8,12.4,5.4,23,1.3C505.3,303.7,512.2,296.5,510.1,291.7z"/>
	<path class="st2" d="M477.8,288.6c0,0-6.7,4.5-6.6,4.4C471.2,293,477.9,288.6,477.8,288.6z"/>
</g>
</svg>
